<svg height="60" viewBox="0 0 286 60" width="286" xmlns="http://www.w3.org/2000/svg"><g fill="none" fill-rule="evenodd"><path d="m55.3668022 44.9216871c-1.3641799-.1361655-.3137051-1.1412842-.3137051-1.1412842s-.6232338.5159136-5.7952877 2.253723c-4.5157015 1.5169532-5.4381691.4168489-4.1194425-.9348993 1.7275144-1.7687913 3.6097446-3.9440395 3.6097446-3.9440395s-3.2423309 3.0070035-11.1035072 5.8468597c-5.3433777 1.929723-7.8302914 1.4962661-4.379536-1.0649461 5.8985288-4.3794388 9.0045972-8.8105467 9.0045972-8.8105467-4.7262626 4.5445467-9.1222123 6.3071223-14.8927338 7.7786223-4.3361223 1.106223-11.4894713.5923489-4.5219173-2.367259 10.5813777-4.4991907 16.8699496-9.7206799 16.8699496-9.7206799-3.6633561 2.7201043-11.3367949 4.7860899-18.2031475 5.2813166-6.0759712.4417122-10.5916726-2.1566979-5.5620971-3.308277 13.6214029-3.1267554 21.9861583-7.0810899 21.9861583-7.0810899s-5.8675468 2.6582374-18.7520827 2.2001115c-9.44630939-.3364317-14.15800363-5.7086547-7.7704641-5.485759 12.0385036.4252014 20.0565324-1.0133741 20.0565324-1.0133741-2.5344065.092946-6.5815899-.2228957-12.4016439-2.9450396-3.09791-1.4468309-5.3763993-2.9348417-5.7416762-4.4414029-.3074892-1.2713309.1713237-2.0803597 3.5312697-.854482 14.2281259 5.1864281 40.0221583 2.4002806 42.5215036 2.1133813v-17.2826223h-45.7658741c-7.4918201 0-13.6234424 6.1316223-13.6234424 13.6234424v32.6728166c0 7.4937626 6.1316223 13.625482 13.6234424 13.625482h45.7658741v-16.0299388c-2.0907518.7801834-3.74591 1.0588273-4.0225143 1.0298849" fill="#fdcd07"/><g fill="#393436"><path d="m220.467626 15.5395683h1.715083v27.0096152h10.379072v1.5912518h-12.094155z"/><path d="m249.120842 32.6178453-3.22582-11.60291c-.369357-1.2259749-.778047-3.4322051-.778047-3.4322051h-.080515s-.410633 2.1670899-.776007 3.4322051l-3.229899 11.60291zm-4.98422-17.078277h1.838914l8.172842 28.6007698h-1.799677l-2.819169-9.9292014h-8.948849l-2.775949 9.9292014h-1.79754z"/><path d="m86.9699137 14.5683453c2.5736439 0 5.39291.7347302 7.353518 2.449813l-2.7778921 5.7622662c-.8172842-.9803526-2.6541583-1.8801907-4.2494892-1.8801907-4.3712806 0-6.5775108 3.9234497-6.5775108 8.501018 0 4.7798741 2.3692985 9.0293633 6.4969964 9.0293633 2.001982 0 3.432205-.9411151 4.6993597-1.9627446l2.7779892 5.6797122c-1.8389137 1.3889461-4.0451439 2.6169605-8.0490108 2.6169605-8.1315647 0-12.8309245-6.3752051-12.8309245-15.0371547 0-8.8271547 4.9037051-15.1590432 13.1569641-15.1590432"/><path d="m106.139719 38.347964c3.473482 0 5.025497-3.6777302 5.025497-8.825018 0-5.1079532-1.552015-8.5401582-5.025497-8.5401582s-5.066773 3.473482-5.066773 8.4988813c0 5.2298417 1.593291 8.8662949 5.066773 8.8662949m0-23.7796187c7.681695 0 11.972364 6.3731655 11.972364 14.9546007 0 8.6186331-4.290669 15.2394605-11.972364 15.2394605-7.6815967 0-11.9310859-6.5774137-11.9310859-15.2807374 0-8.4988813 4.2494892-14.9133238 11.9310859-14.9133238"/><path d="m120.431655 14.5683453h7.068755l4.984122 13.4831007c.817285 1.9607051 1.430321 4.8645648 1.430321 4.8645648h.162971s-.367317-3.0669281-.367317-4.9038022v-13.4438633h6.292651v29.2138058h-7.027381l-5.025496-13.4397842c-.776008-2.0040216-1.390986-4.903705-1.390986-4.903705h-.163068s.367316 3.0627518.367316 4.903705v13.4397842h-6.331888z"/><path d="m152.118097 37.8588561c3.432205 0 5.271119-3.0235144 5.271119-8.7445036 0-5.6776726-1.960705-8.6206726-5.271119-8.6206726h-1.675845v17.3651762zm-8.37709-23.2905108h8.540158c7.477349 0 12.011601 5.3536727 12.011601 14.5460072 0 9.1944712-4.534252 14.6677986-12.011601 14.6677986h-8.540158z"/><path d="m178.010223 38.347964c3.473385 0 5.025496-3.6777302 5.025496-8.825018 0-5.1079532-1.552111-8.5401582-5.025496-8.5401582-3.473482 0-5.066773 3.473482-5.066773 8.4988813 0 5.2298417 1.593291 8.8662949 5.066773 8.8662949m0-23.7796187c7.681597 0 11.972363 6.3731655 11.972363 14.9546007 0 8.6186331-4.290766 15.2394605-11.972363 15.2394605-7.681694 0-11.931086-6.5774137-11.931086-15.2807374 0-8.4988813 4.249392-14.9133238 11.931086-14.9133238"/><path d="m200.268615 28.051446c1.758399 0 3.188622-1.388946 3.188622-3.7995215 0-1.3889461-.449967-2.5323669-1.184697-3.1453058-.532425-.4085935-1.225878-.6129388-1.7584-.6129388h-1.510737v7.5577661zm-7.966457-13.4831007h9.233612c1.14546 0 2.614921.2848597 3.799521.8172842 2.901821 1.3085288 4.903705 4.2494892 4.903705 8.1708022 0 3.5560359-1.673708 6.6621043-4.003867 8.2141187v.0825539s.408691.4891079 1.02163 1.754223l4.69732 10.1748238h-7.353518l-4.003867-9.8879245h-1.593291v9.8879245h-6.701245z"/><path d="m262.206421 42.5491835c4.577568 0 6.538273-2.3692986 6.538273-6.0884029 0-4.2081151-2.453989-6.5795504-5.190604-6.5795504h-5.43205v12.6679533zm1.145363-14.2612447c2.369299 0 4.453835-2.2062302 4.453835-5.6384352 0-3.4321079-2.125813-5.5146043-5.190605-5.5146043h-4.492974v11.1530395zm-6.948906-12.7483705h6.292651c3.882075 0 6.907726 2.6995144 6.907726 7.1099353 0 3.2691367-1.677982 5.2711187-3.269136 6.2927482v.082554c2.041122.734633 4.168975 3.3104136 4.168975 7.3555575 0 4.7385971-2.90386 7.760072-8.214119 7.760072h-5.886097z"/><path d="m272.842284 40.1476403c1.4715 1.3477662 3.432205 2.3280216 5.555881 2.3280216 2.984277 0 5.231785-2.1236763 5.231785-5.5971583 0-7.6815971-11.113803-6.6599676-11.113803-15.0784317 0-4.0018273 2.614921-7.2317266 7.314281-7.2317266 1.960705 0 3.758245.5737015 5.39291 1.6758453l-.69559 1.5932914c-1.143324-.8977985-3.145306-1.5932914-4.779874-1.5932914-3.595176 0-5.43409 2.6561979-5.43409 5.5558813 0 7.1924893 11.113802 6.1729964 11.113802 14.9154605 0 4.290669-2.656198 7.4359748-7.109935 7.4359748-2.330061 0-4.575529-.8977014-6.375205-2.5756835z"/></g></g></svg>